<?xml version="1.0" encoding="UTF-8" standalone="no"?>
<!DOCTYPE svg PUBLIC "-//W3C//DTD SVG 20010904//EN" "http://www.w3.org/TR/2001/REC-SVG-20010904/DTD/svg10.dtd">
<svg version="1.0" xmlns="http://www.w3.org/2000/svg" width="623.000000pt" height="638.000000pt" viewBox="0 0 623.000000 638.000000" preserveAspectRatio="xMidYMid meet">
<metadata>
Created by potrace 1.12, written by Peter Selinger 2001-2015
</metadata>
<g transform="translate(0.000000,638.000000) scale(0.100000,-0.100000)" fill="#000000" stroke="none">
<path d="M1560 5626 l-1545 -733 -3 -346 c-1 -191 2 -347 6 -347 5 0 69 29 143 64 l134 63 3 -1272 2 -1272 2820 0 2820 0 0 1264 c0 695 2 1263 4 1263 2 0 65 -29 140 -64 l136 -65 0 357 -1 357 -1540 730 c-847 402 -1548 731 -1557 732 -9 1 -712 -328 -1562 -731z m2670 -493 l1100 -526 0 -1104 0 -1103 -2210 0 -2210 0 2 1110 3 1110 1095 520 c602 285 1101 519 1108 520 7 0 507 -237 1112 -527z"/>
<path d="M1920 4215 l0 -325 1195 0 1195 0 0 325 0 325 -1195 0 -1195 0 0 -325z"/>
<path d="M1920 3220 l0 -320 1195 0 1195 0 -2 318 -3 317 -1192 3 -1193 2 0 -320z"/>
<path d="M867 1239 c-145 -34 -228 -178 -185 -321 15 -51 82 -126 133 -149 47 -22 148 -25 208 -7 34 10 41 10 52 -5 12 -17 67 -23 100 -11 14 6 11 12 -15 39 l-32 33 28 58 c73 149 2 314 -155 358 -63 18 -78 18 -134 5z m142 -110 c55 -34 82 -123 57 -184 l-16 -38 -23 21 c-17 16 -36 22 -70 22 -25 0 -48 -4 -51 -8 -3 -5 13 -26 34 -47 44 -43 40 -55 -20 -55 -76 0 -140 69 -140 153 0 129 122 201 229 136z"/>
<path d="M1855 1213 c-90 -214 -185 -444 -185 -448 0 -3 24 -5 54 -5 l53 0 21 50 21 50 88 0 89 0 18 -50 18 -50 54 0 c30 0 54 3 54 8 0 4 -43 114 -96 245 l-97 237 -38 0 c-35 0 -40 -3 -54 -37z m105 -265 c0 -5 -25 -8 -56 -8 -41 0 -55 3 -52 13 3 6 15 43 28 81 l23 70 28 -74 c16 -41 29 -78 29 -82z"/>
<path d="M3507 1236 c-168 -47 -238 -250 -133 -389 84 -112 269 -131 376 -39 61 52 84 103 84 187 0 80 -20 129 -76 182 -62 60 -163 84 -251 59z m154 -110 c68 -46 87 -129 46 -201 -59 -105 -179 -112 -244 -14 -36 55 -40 104 -11 158 43 80 138 105 209 57z"/>
<path d="M4466 1240 c-66 -21 -114 -99 -102 -164 8 -43 37 -68 119 -105 82 -37 102 -67 70 -109 -31 -42 -76 -42 -117 2 l-33 35 -32 -33 -31 -32 32 -31 c18 -17 43 -36 55 -42 30 -16 129 -14 161 3 83 43 109 138 63 224 -6 12 -49 39 -96 61 -64 31 -85 46 -85 60 0 47 71 68 118 35 25 -17 33 -12 62 38 20 34 -120 78 -184 58z"/>
<path d="M4927 1243 c-4 -3 -7 -114 -7 -245 l0 -238 55 0 54 0 3 155 3 154 130 -159 130 -159 43 -1 42 0 0 240 0 240 -55 0 -55 0 0 -156 0 -156 -137 166 c-124 150 -140 166 -168 166 -18 0 -35 -3 -38 -7z"/>
<path d="M5645 1244 c-90 -22 -150 -66 -188 -138 -30 -57 -30 -165 0 -221 48 -91 120 -135 223 -135 114 0 194 57 225 162 30 101 32 98 -101 98 l-115 0 3 -37 3 -38 53 -3 c28 -2 52 -5 52 -8 0 -20 -35 -66 -60 -79 -64 -33 -140 -6 -177 65 -28 53 -29 110 -3 167 40 89 146 110 214 44 l34 -33 41 21 c22 12 41 25 41 29 0 15 -65 71 -100 86 -40 16 -116 27 -145 20z"/>
<path d="M350 995 l0 -235 135 0 135 0 0 40 0 40 -85 0 -85 0 0 65 0 65 80 0 80 0 0 40 0 40 -80 0 -80 0 0 50 0 50 85 0 85 0 0 40 0 40 -135 0 -135 0 0 -235z"/>
<path d="M1242 1053 c3 -205 14 -240 84 -280 55 -32 163 -32 218 0 70 39 80 75 84 280 l4 177 -56 0 -56 0 0 -165 c0 -208 -10 -235 -90 -235 -15 0 -38 9 -51 19 -23 19 -24 24 -27 200 l-3 181 -55 0 -55 0 3 -177z"/>
<path d="M2180 995 l0 -235 125 0 125 0 0 40 0 40 -70 0 -70 0 0 195 0 195 -55 0 -55 0 0 -235z"/>
<path d="M2870 995 l0 -235 55 0 55 0 0 105 0 105 90 0 90 0 0 -105 0 -105 55 0 55 0 0 235 0 235 -55 0 -55 0 0 -90 0 -90 -90 0 -90 0 0 90 0 90 -55 0 -55 0 0 -235z"/>
<path d="M3890 1085 c0 -172 11 -235 51 -280 39 -44 85 -58 170 -53 81 4 114 24 147 88 20 41 22 58 22 217 l0 173 -50 0 -50 0 0 -155 c0 -166 -10 -214 -48 -234 -36 -19 -77 -13 -103 15 -23 25 -24 31 -27 200 l-3 174 -55 0 -54 0 0 -145z"/>
<path d="M4740 995 l0 -235 50 0 50 0 0 235 0 235 -50 0 -50 0 0 -235z"/>
<path d="M535 514 c-91 -23 -151 -67 -187 -137 -49 -98 -25 -222 57 -295 52 -45 100 -62 181 -62 231 0 340 279 168 430 -21 18 -52 38 -69 46 -36 15 -121 25 -150 18z m115 -113 c42 -22 80 -83 80 -129 0 -18 -9 -50 -20 -72 -58 -114 -202 -114 -260 0 -25 49 -25 90 0 139 38 75 126 102 200 62z"/>
<path d="M2143 501 c-72 -25 -117 -62 -147 -123 -65 -131 -4 -293 130 -344 69 -26 178 -17 240 21 70 44 107 108 112 196 4 60 1 77 -23 125 -32 64 -84 107 -158 129 -64 19 -90 19 -154 -4z m155 -101 c99 -61 96 -198 -7 -267 -62 -42 -137 -20 -188 56 -85 126 66 289 195 211z"/>
<path d="M4177 513 c-4 -3 -7 -114 -7 -245 l0 -238 55 0 54 0 3 154 3 155 130 -159 130 -159 43 -1 42 0 0 240 0 240 -55 0 -55 0 0 -156 0 -157 -137 167 c-124 150 -140 166 -168 166 -18 0 -35 -3 -38 -7z"/>
<path d="M1010 265 l0 -235 55 0 55 0 0 88 0 87 54 2 c101 2 156 55 156 148 0 62 -28 111 -75 131 -22 9 -71 14 -140 14 l-105 0 0 -235z m191 145 c14 -8 19 -21 19 -53 0 -53 -13 -67 -62 -67 l-38 0 0 65 0 65 31 0 c17 0 39 -5 50 -10z"/>
<path d="M1500 265 l0 -235 55 0 55 0 0 85 c0 47 3 85 8 85 111 8 152 24 182 73 27 43 26 121 0 165 -30 49 -72 62 -195 62 l-105 0 0 -235z m191 145 c14 -8 19 -21 19 -53 0 -53 -13 -67 -62 -67 l-38 0 0 65 0 65 31 0 c17 0 39 -5 50 -10z"/>
<path d="M2660 265 l0 -235 50 0 49 0 3 93 3 92 59 -93 59 -92 65 0 c50 0 62 3 55 13 -6 6 -38 50 -72 96 l-61 85 35 20 c61 35 82 116 47 186 -27 54 -69 70 -189 70 l-103 0 0 -235z m175 149 c25 -10 36 -49 24 -81 -13 -35 -26 -43 -66 -43 l-33 0 0 65 0 65 29 0 c16 0 37 -3 46 -6z"/>
<path d="M3120 460 l0 -40 50 0 50 0 0 -195 0 -195 55 0 55 0 0 195 0 195 50 0 50 0 0 40 0 40 -155 0 -155 0 0 -40z"/>
<path d="M3592 318 c3 -203 9 -226 70 -270 29 -20 45 -23 120 -23 72 0 91 4 114 21 72 53 83 95 84 302 l0 152 -55 0 -55 0 0 -166 c0 -166 -5 -195 -39 -221 -23 -18 -76 -16 -100 4 -31 26 -40 79 -41 241 l0 142 -51 0 -51 0 4 -182z"/>
<path d="M4820 265 l0 -235 55 0 55 0 0 235 0 235 -55 0 -55 0 0 -235z"/>
<path d="M5090 460 l0 -40 50 0 50 0 0 -195 0 -195 55 0 55 0 0 195 0 195 50 0 50 0 0 40 0 40 -155 0 -155 0 0 -40z"/>
<path d="M5520 495 c0 -4 34 -59 75 -124 l75 -119 0 -111 0 -111 55 0 55 0 0 109 0 110 80 123 79 123 -51 3 c-28 2 -56 1 -63 -1 -6 -3 -31 -37 -55 -77 -50 -82 -46 -83 -102 23 l-31 57 -58 0 c-33 0 -59 -2 -59 -5z"/>
</g>
</svg>