<?xml version="1.0" encoding="utf-8"?>
<!-- Generator: Adobe Illustrator 16.0.0, SVG Export Plug-In . SVG Version: 6.00 Build 0)  -->
<!DOCTYPE svg PUBLIC "-//W3C//DTD SVG 1.1//EN" "http://www.w3.org/Graphics/SVG/1.1/DTD/svg11.dtd">
<svg version="1.1" id="Layer_1" xmlns="http://www.w3.org/2000/svg" xmlns:xlink="http://www.w3.org/1999/xlink" x="0px" y="0px"
	 width="271.496px" height="299.33px" viewBox="0 0 271.496 299.33" enable-background="new 0 0 271.496 299.33"
	 xml:space="preserve">
<g>
	<polygon fill="#231F20" points="0,0 236.459,0 236.459,245.167 0,245.167 0,0 	"/>
	<path fill-rule="evenodd" clip-rule="evenodd" fill="#231F20" d="M5.312,268.899v30.431H2.035v-33.759h9.079
		c1.994,0,3.602,0.154,4.812,0.453c1.216,0.299,2.319,0.793,3.308,1.494c1.345,0.948,2.411,2.205,3.189,3.781
		c0.778,1.577,1.169,3.246,1.169,4.999c0,2.617-0.773,4.864-2.329,6.749c-1.557,1.886-3.499,2.917-5.833,3.081l8.162,13.201h-3.941
		L9.63,283.048h3.2c2.133,0,3.864-0.629,5.199-1.875c1.339-1.258,2.004-2.865,2.004-4.823c0-1.186-0.207-2.267-0.613-3.235
		c-0.407-0.979-1.015-1.824-1.819-2.546c-0.665-0.607-1.463-1.04-2.396-1.288c-0.938-0.257-2.602-0.381-4.998-0.381H5.312
		L5.312,268.899z"/>
	<polygon fill="#231F20" points="43.029,280.719 57.224,280.719 57.224,284.048 43.029,284.048 43.029,296.054 57.224,296.054 
		57.224,299.33 39.7,299.33 39.7,265.571 57.224,265.571 57.224,268.899 43.029,268.899 43.029,280.719 	"/>
	<path fill-rule="evenodd" clip-rule="evenodd" fill="#231F20" d="M73.459,299.33h-3.503l13.103-33.759h3.993l13.057,33.759h-3.55
		l-4.035-10.583h-15.03L73.459,299.33L73.459,299.33z M91.364,285.707l-6.405-16.962l-6.307,16.962H91.364L91.364,285.707z"/>
	<polygon fill="#231F20" points="128.597,299.33 113.401,299.33 113.401,265.571 116.725,265.571 116.725,296.054 128.597,296.054 
		128.597,299.33 	"/>
	<polygon fill="#231F20" points="149.36,299.33 146.043,299.33 146.043,268.899 139.303,268.899 139.303,265.571 156.101,265.571 
		156.101,268.899 149.36,268.899 149.36,299.33 	"/>
	<path fill-rule="evenodd" clip-rule="evenodd" fill="#231F20" d="M170.672,282.307c0,4.111,1.339,7.554,4.019,10.336
		c2.659,2.782,5.978,4.173,9.894,4.173c3.833,0,7.069-1.401,9.707-4.215c2.658-2.812,3.978-6.275,3.978-10.387
		c0-3.834-1.36-7.142-4.081-9.914c-2.721-2.782-5.997-4.163-9.831-4.163c-1.565,0-3.07,0.268-4.514,0.794
		c-1.442,0.535-2.782,1.329-3.997,2.359c-1.608,1.36-2.866,3.02-3.794,4.977C171.125,278.235,170.672,280.245,170.672,282.307
		L170.672,282.307z M167.21,282.244c0-2.35,0.453-4.585,1.359-6.719c0.907-2.133,2.206-4.05,3.916-5.729
		c1.67-1.618,3.483-2.844,5.462-3.658c1.999-0.824,4.143-1.236,6.472-1.236c2.35,0,4.534,0.422,6.554,1.247
		c2.02,0.824,3.875,2.061,5.544,3.699c1.711,1.68,3.01,3.565,3.875,5.646c0.866,2.092,1.299,4.339,1.299,6.75
		c0,2.392-0.371,4.597-1.113,6.596c-0.742,1.998-1.854,3.823-3.339,5.451c-1.731,1.886-3.669,3.308-5.833,4.267
		c-2.164,0.958-4.514,1.442-7.049,1.442c-4.843,0-8.924-1.711-12.221-5.111C168.858,291.478,167.21,287.263,167.21,282.244
		L167.21,282.244z"/>
	<path fill-rule="evenodd" clip-rule="evenodd" fill="#231F20" d="M219.848,268.899v30.431h-3.277v-33.759h9.068
		c2,0,3.606,0.154,4.823,0.453c1.216,0.299,2.309,0.793,3.297,1.494c1.34,0.948,2.412,2.205,3.195,3.781
		c0.783,1.577,1.175,3.246,1.175,4.999c0,2.617-0.783,4.864-2.329,6.749c-1.566,1.886-3.504,2.917-5.854,3.081l8.183,13.201h-3.957
		l-10.017-16.282h3.194c2.144,0,3.875-0.629,5.214-1.875c1.319-1.258,2-2.865,2-4.823c0-1.186-0.207-2.267-0.619-3.235
		c-0.411-0.979-1.01-1.824-1.812-2.546c-0.66-0.607-1.464-1.04-2.412-1.288c-0.928-0.257-2.597-0.381-4.988-0.381H219.848
		L219.848,268.899z"/>
	<path fill-rule="evenodd" clip-rule="evenodd" fill="#231F20" d="M259.378,257.192h-2.618v4.998h2.618
		c1.463,0,2.493-0.185,3.091-0.545c0.577-0.372,0.887-1,0.887-1.876c0-0.918-0.31-1.566-0.948-1.969
		C261.789,257.398,260.779,257.192,259.378,257.192L259.378,257.192z M259.769,255.781c1.938,0,3.401,0.309,4.329,0.938
		c0.947,0.629,1.422,1.598,1.422,2.906c0,0.968-0.31,1.793-0.907,2.453c-0.576,0.658-1.381,1.061-2.391,1.205l3.112,6.41h-2.392
		l-2.926-6.111h-3.257v6.111h-2.082v-13.912H259.769L259.769,255.781z M270.177,262.984c0-1.474-0.268-2.854-0.804-4.164
		c-0.515-1.309-1.277-2.462-2.267-3.462c-1.03-1.02-2.205-1.804-3.524-2.35c-1.319-0.536-2.7-0.804-4.184-0.804
		c-1.423,0-2.783,0.258-4.061,0.783s-2.432,1.299-3.442,2.309c-1.05,1.062-1.854,2.247-2.41,3.565
		c-0.557,1.309-0.825,2.679-0.825,4.091s0.269,2.772,0.825,4.07c0.535,1.289,1.318,2.453,2.349,3.483s2.186,1.804,3.483,2.35
		s2.658,0.814,4.081,0.814c1.422,0,2.803-0.269,4.143-0.814c1.319-0.557,2.514-1.35,3.565-2.38c0.989-0.979,1.752-2.093,2.287-3.37
		C269.909,265.838,270.177,264.469,270.177,262.984L270.177,262.984z M259.398,250.845c1.669,0,3.236,0.31,4.72,0.907
		c1.463,0.608,2.762,1.483,3.895,2.638c1.113,1.124,1.979,2.422,2.576,3.886c0.598,1.473,0.907,3.019,0.907,4.657
		c0,1.649-0.31,3.194-0.887,4.638c-0.597,1.442-1.463,2.72-2.597,3.844c-1.174,1.164-2.514,2.062-3.997,2.679
		c-1.485,0.618-3.03,0.928-4.617,0.928c-1.607,0-3.153-0.299-4.617-0.907c-1.442-0.617-2.741-1.504-3.895-2.668
		c-1.155-1.145-2.021-2.443-2.639-3.906c-0.598-1.464-0.906-2.999-0.906-4.606c0-1.577,0.309-3.112,0.927-4.606
		c0.639-1.483,1.525-2.823,2.68-3.998c1.112-1.134,2.391-2,3.833-2.587C256.225,251.144,257.771,250.845,259.398,250.845
		L259.398,250.845z"/>
	<polygon fill="#FFFFFF" points="125.294,129.833 125.294,217.364 209.089,217.364 125.294,129.833 	"/>
	<path fill="#FFFFFF" d="M125.294,28.617c0,0.624,0,94.374,0,94.374c27.365,1.242,65.144-5.601,65.144-47.902
		C191.055,30.482,140.23,22.398,125.294,28.617L125.294,28.617z"/>
	<polygon fill="#FFFFFF" points="26.566,27.994 98.104,27.994 98.104,217.364 26.566,217.364 26.566,27.994 	"/>
</g>
</svg>
